<?xml version="1.0" encoding="UTF-8" standalone="no"?>
<!DOCTYPE svg PUBLIC "-//W3C//DTD SVG 1.1//EN"
 "http://www.w3.org/Graphics/SVG/1.1/DTD/svg11.dtd">
<!-- Generated by graphviz version 2.43.0 (0)
 -->
<!-- Title: %3 Pages: 1 -->
<svg width="118pt" height="212pt"
 viewBox="0.00 0.00 117.55 212.00" xmlns="http://www.w3.org/2000/svg" xmlns:xlink="http://www.w3.org/1999/xlink">
<g id="graph0" class="graph" transform="scale(1 1) rotate(0) translate(4 208)">
<title>%3</title>
<polygon fill="white" stroke="transparent" points="-4,4 -4,-208 113.55,-208 113.55,4 -4,4"/>
<!-- fake -->
<g id="node1" class="node">
<title>fake</title>
</g>
<!-- 0 -->
<g id="node2" class="node">
<title>0</title>
<ellipse fill="none" stroke="black" cx="30.55" cy="-109" rx="18" ry="18"/>
<ellipse fill="none" stroke="black" cx="30.55" cy="-109" rx="22" ry="22"/>
<text text-anchor="middle" x="30.55" y="-105.3" font-family="Times,serif" font-size="14.00">0</text>
</g>
<!-- fake&#45;&gt;0 -->
<g id="edge1" class="edge">
<title>fake&#45;&gt;0</title>
<path fill="none" stroke="black" stroke-width="2" d="M30.55,-167.98C30.55,-160.15 30.55,-150.61 30.55,-141.54"/>
<polygon fill="black" stroke="black" stroke-width="2" points="34.05,-141.24 30.55,-131.24 27.05,-141.24 34.05,-141.24"/>
</g>
<!-- 0&#45;&gt;0 -->
<g id="edge3" class="edge">
<title>0&#45;&gt;0</title>
<path fill="none" stroke="black" d="M52.35,-112.69C62.11,-113.04 70.55,-111.81 70.55,-109 70.55,-107.24 67.25,-106.1 62.4,-105.58"/>
<polygon fill="black" stroke="black" points="62.45,-102.08 52.35,-105.31 62.26,-109.08 62.45,-102.08"/>
<text text-anchor="middle" x="74.05" y="-105.3" font-family="Times,serif" font-size="14.00">*</text>
</g>
<!-- 0&#45;&gt;0 -->
<g id="edge7" class="edge">
<title>0&#45;&gt;0</title>
<path fill="none" stroke="black" d="M51.66,-115.31C69.64,-118.1 88.55,-115.99 88.55,-109 88.55,-103.32 76.07,-100.87 61.74,-101.64"/>
<polygon fill="black" stroke="black" points="61.24,-98.17 51.66,-102.69 61.97,-105.13 61.24,-98.17"/>
<text text-anchor="middle" x="93.55" y="-105.3" font-family="Times,serif" font-size="14.00">b</text>
</g>
<!-- 1 -->
<g id="node3" class="node">
<title>1</title>
<ellipse fill="none" stroke="black" cx="30.55" cy="-18" rx="27" ry="18"/>
<text text-anchor="middle" x="30.55" y="-14.3" font-family="Times,serif" font-size="14.00">1</text>
</g>
<!-- 0&#45;&gt;1 -->
<g id="edge4" class="edge">
<title>0&#45;&gt;1</title>
<path fill="none" stroke="black" d="M21.88,-88.62C18.32,-78.39 15.47,-65.58 17.55,-54 18.07,-51.07 18.83,-48.06 19.72,-45.1"/>
<polygon fill="black" stroke="black" points="23.11,-45.99 23.09,-35.39 16.5,-43.69 23.11,-45.99"/>
<text text-anchor="middle" x="22.05" y="-57.8" font-family="Times,serif" font-size="14.00">a</text>
</g>
<!-- 1&#45;&gt;0 -->
<g id="edge2" class="edge">
<title>1&#45;&gt;0</title>
<path fill="none" stroke="black" d="M30.55,-36.07C30.55,-47.61 30.55,-63.18 30.55,-76.89"/>
<polygon fill="black" stroke="black" points="27.05,-76.91 30.55,-86.91 34.05,-76.91 27.05,-76.91"/>
<text text-anchor="middle" x="35.55" y="-57.8" font-family="Times,serif" font-size="14.00">b</text>
</g>
<!-- 1&#45;&gt;1 -->
<g id="edge5" class="edge">
<title>1&#45;&gt;1</title>
<path fill="none" stroke="black" d="M57.34,-21.93C67.33,-22.06 75.55,-20.75 75.55,-18 75.55,-16.28 72.34,-15.13 67.49,-14.53"/>
<polygon fill="black" stroke="black" points="67.49,-11.03 57.34,-14.07 67.17,-18.02 67.49,-11.03"/>
<text text-anchor="middle" x="80.05" y="-14.3" font-family="Times,serif" font-size="14.00">a</text>
</g>
<!-- 1&#45;&gt;1 -->
<g id="edge6" class="edge">
<title>1&#45;&gt;1</title>
<path fill="none" stroke="black" d="M55.78,-24.94C74.59,-27.37 93.55,-25.05 93.55,-18 93.55,-12.21 80.79,-9.62 65.82,-10.21"/>
<polygon fill="black" stroke="black" points="65.45,-6.73 55.78,-11.06 66.04,-13.7 65.45,-6.73"/>
<text text-anchor="middle" x="97.05" y="-14.3" font-family="Times,serif" font-size="14.00">*</text>
</g>
</g>
</svg>
